<svg xmlns="http://www.w3.org/2000/svg" xmlns:xlink="http://www.w3.org/1999/xlink" width="500" zoomAndPan="magnify" viewBox="0 0 375 374.999991" height="500" preserveAspectRatio="xMidYMid meet" version="1.0"><defs><clipPath id="d8392855fa"><path d="M 28 111.667969 L 194 111.667969 L 194 122.917969 L 28 122.917969 Z M 28 111.667969 " clip-rule="nonzero"/></clipPath><clipPath id="b1003acb57"><path d="M 29 224.847656 L 263 224.847656 L 263 240.597656 L 29 240.597656 Z M 29 224.847656 " clip-rule="nonzero"/></clipPath></defs><g clip-path="url(#d8392855fa)"><path fill="#ffffff" d="M 187.765625 111.667969 L 33.96875 111.667969 C 30.933594 111.667969 28.476562 114.183594 28.476562 117.292969 C 28.476562 120.398438 30.933594 122.917969 33.96875 122.917969 L 187.765625 122.917969 C 190.800781 122.917969 193.257812 120.398438 193.257812 117.292969 C 193.257812 114.183594 190.800781 111.667969 187.765625 111.667969 Z M 187.765625 111.667969 " fill-opacity="1" fill-rule="nonzero"/></g><g clip-path="url(#b1003acb57)"><path fill="#ffffff" d="M 254.648438 224.847656 L 36.835938 224.847656 C 32.539062 224.847656 29.058594 228.375 29.058594 232.722656 C 29.058594 237.074219 32.539062 240.597656 36.835938 240.597656 L 254.648438 240.597656 C 258.941406 240.597656 262.425781 237.074219 262.425781 232.722656 C 262.425781 228.375 258.941406 224.847656 254.648438 224.847656 Z M 254.648438 224.847656 " fill-opacity="1" fill-rule="nonzero"/></g></svg>